<svg width="48" height="48" viewBox="0 0 48 48" fill="none" xmlns="http://www.w3.org/2000/svg">
<path d="M44.48 5.11003C44.48 5.11003 44.5 5.06003 44.5 5.04003C44.5 5.03003 44.5 5.02003 44.5 5.00003C44.5 4.97003 44.5 4.94003 44.49 4.91003C44.49 4.89003 44.49 4.86003 44.48 4.84003C44.48 4.84003 44.48 4.84003 44.48 4.83003C44.48 4.83003 44.48 4.82003 44.47 4.81003C44.46 4.78003 44.44 4.76003 44.42 4.73003C44.41 4.71003 44.4 4.69003 44.39 4.68003L44.37 4.66003C44.35 4.64003 44.33 4.63003 44.3 4.61003C44.28 4.60003 44.26 4.58003 44.24 4.57003C44.24 4.57003 44.22 4.57003 44.21 4.56003C44.21 4.56003 44.2 4.56003 44.19 4.55003C44.17 4.55003 44.15 4.55003 44.13 4.55003C44.1 4.55003 44.08 4.53003 44.06 4.53003C44.05 4.53003 44.04 4.53003 44.02 4.53003C43.99 4.53003 43.97 4.53003 43.94 4.53003C43.91 4.53003 43.89 4.53003 43.86 4.54003C43.86 4.54003 43.86 4.54003 43.85 4.54003L3.82999 18.53C3.65999 18.59 3.53999 18.73 3.50999 18.9C3.46999 19.07 3.52999 19.25 3.65999 19.37L14.48 29.2L13.5 39.95C13.5 40.02 13.5 40.08 13.52 40.15C13.55 40.24 13.61 40.31 13.68 40.38C13.68 40.38 13.68 40.4 13.7 40.41H13.72C13.79 40.46 13.86 40.49 13.95 40.5C13.97 40.5 13.98 40.5 14 40.5C14.1 40.5 14.18 40.46 14.26 40.42C14.26 40.42 14.28 40.42 14.29 40.42L21.15 35.52L29.66 43.38C29.75 43.47 29.87 43.51 30 43.51C30.04 43.51 30.08 43.51 30.12 43.5C30.28 43.46 30.41 43.34 30.47 43.19L44.47 5.17003C44.47 5.17003 44.47 5.13003 44.47 5.11003H44.48ZM4.95999 19.19L41.53 6.39003L15.02 28.34L4.95999 19.19ZM15.48 29.25L34.26 13.7L16.65 30.64C16.65 30.64 16.65 30.64 16.65 30.65C16.65 30.65 16.65 30.65 16.64 30.65C16.59 30.7 16.56 30.76 16.54 30.83L14.9 35.74L15.49 29.24L15.48 29.25Z" fill="white"/>
</svg>
